<svg width="100" height="100" viewBox="0 0 100 100" fill="none" xmlns="http://www.w3.org/2000/svg">
<rect width="100" height="100" rx="10" fill="white"/>
<path fill-rule="evenodd" clip-rule="evenodd" d="M49.9285 8.10091C48.4878 8.34151 47.3833 8.94196 46.2753 10.0866C45.1799 11.2183 44.5286 12.4404 44.0587 14.2493C43.846 15.0658 43.758 15.1291 42.7956 15.1583C41.8353 15.1871 40.2616 15.6599 39.2846 16.2133C38.728 16.5285 37.5471 17.5631 37.5471 17.7357C37.5471 17.777 37.4499 17.9475 37.3307 18.1151C37.0371 18.5275 36.6343 19.7872 36.636 20.2889C36.6389 21.1708 37.2335 22.7265 37.839 23.4354C38.7009 24.4445 39.0932 24.8085 39.9718 25.4123C40.27 25.6175 40.5135 25.8084 40.5135 25.8376C40.5135 25.866 40.3546 26.4285 40.1603 27.0873C39.853 28.1298 39.8125 28.4212 39.848 29.3394C39.9264 31.3647 40.7374 32.4276 42.6968 33.0706C44.0149 33.503 46.4092 33.332 47.6143 32.7191C47.7231 32.6636 47.8886 32.6182 47.982 32.6182C48.0754 32.6182 48.3711 32.4877 48.6396 32.3279C48.9077 32.1682 49.2176 32.0085 49.3272 31.9723C49.4369 31.9364 49.527 31.8618 49.527 31.8063C49.527 31.7508 49.6041 31.7058 49.6979 31.7058C49.7922 31.7058 49.8693 31.6666 49.8693 31.6191C49.8693 31.5715 49.964 31.4731 50.0799 31.4006C50.2513 31.2938 50.3451 31.3151 50.5836 31.5161C50.745 31.6516 50.9843 31.8526 51.1157 31.9623C51.2474 32.0719 51.4059 32.162 51.4676 32.162C51.5297 32.162 51.5806 32.2133 51.5806 32.2758C51.5806 32.3388 51.6577 32.3901 51.7516 32.3901C51.8458 32.3901 51.9229 32.4414 51.9229 32.5039C51.9229 32.5669 51.9921 32.6182 52.0764 32.6182C52.1606 32.6182 52.4008 32.7032 52.6097 32.8075C53.826 33.4142 56.049 33.6773 57.2853 33.3604C57.6176 33.2749 57.9504 33.1911 58.2836 33.109C58.4245 33.0756 58.54 33.0026 58.54 32.9472C58.54 32.8917 58.618 32.8463 58.7135 32.8463C58.9391 32.8463 60.3656 31.4202 60.3656 31.1946C60.3656 31.0991 60.411 31.0211 60.4669 31.0211C60.5223 31.0211 60.6011 30.8543 60.6416 30.6504C60.8935 29.3828 60.9214 28.9471 60.8063 28.0998C60.7392 27.6048 60.6612 26.9431 60.6333 26.6295L60.5824 26.059L61.1587 25.7801C61.4756 25.6266 61.7345 25.4598 61.7345 25.4094C61.7345 25.3589 61.785 25.3177 61.8467 25.3177C62.1286 25.3177 63.9024 23.5451 63.9024 23.2632C63.9024 23.2011 63.9416 23.1506 63.9895 23.1506C64.0779 23.1506 64.394 22.5085 64.6638 21.7817C64.9353 21.0494 64.7726 18.9299 64.4453 18.9299C64.3978 18.9299 64.359 18.8273 64.359 18.7018C64.359 18.5763 64.3073 18.4737 64.2447 18.4737C64.1818 18.4737 64.1305 18.4033 64.1305 18.3178C64.1305 18.1239 63.0463 17.006 62.5876 16.727C61.4009 16.0052 59.5049 15.4027 58.4016 15.396C57.9379 15.3935 57.7415 15.1758 57.7415 14.665C57.7415 14.507 57.6969 14.2597 57.6418 14.1159C57.5872 13.9716 57.4809 13.6484 57.4054 13.3974C57.1932 12.6902 56.4067 11.1649 55.9989 10.6687C54.7034 9.09333 53.5266 8.39071 51.6944 8.09924C50.863 7.96664 50.7316 7.96664 49.9285 8.10091ZM75.1405 23.784C74.0684 23.9583 72.9451 24.286 72.1811 24.6484C71.9339 24.7656 71.6645 24.8615 71.5824 24.8615C71.4998 24.8615 71.4327 24.9032 71.4327 24.9541C71.4327 25.0053 71.2529 25.1175 71.0332 25.2038C70.8134 25.2897 70.6337 25.4019 70.6337 25.4532C70.6337 25.504 70.557 25.5457 70.4628 25.5457C70.3685 25.5457 70.2914 25.597 70.2914 25.66C70.2914 25.7225 70.2147 25.7738 70.1204 25.7738C70.0262 25.7738 69.9495 25.8143 69.9495 25.8635C69.9495 25.9127 69.8081 26.0369 69.6355 26.1395C69.2902 26.3451 67.8958 27.6473 67.8958 27.7641C67.8958 27.8045 67.7649 27.9684 67.6052 28.1277C67.4459 28.2874 67.1882 28.6185 67.0335 28.8641C66.7746 29.274 66.4126 29.4679 66.4126 29.196C66.4126 29.1335 66.3096 29.0822 66.1841 29.0822C66.0586 29.0822 65.956 29.0309 65.956 28.9679C65.956 28.9054 65.8276 28.8541 65.6708 28.8541C65.514 28.8541 65.3856 28.8024 65.3856 28.7398C65.3856 28.6773 65.2572 28.6256 65.1004 28.6256C64.9436 28.6256 64.8152 28.5743 64.8152 28.5117C64.8152 28.4488 64.6613 28.3975 64.4728 28.3975C64.2848 28.3975 64.1305 28.352 64.1305 28.2962C64.1305 28.1477 63.3153 28.0752 63.2728 28.2194C63.2532 28.2861 63.2089 28.7623 63.1743 29.2781L63.1114 30.2159L63.5926 30.3452C64.5679 30.6066 66.0953 31.2046 66.7816 31.5932C67.1828 31.8205 67.3971 31.7179 67.6782 31.1637C67.8291 30.8656 67.9913 30.605 68.0384 30.5841C68.0856 30.5629 68.1247 30.4861 68.126 30.4128C68.1289 30.2168 68.6464 29.5909 69.5546 28.6852C70.4715 27.7703 70.7667 27.5235 71.1562 27.3463C71.308 27.2771 71.4327 27.1857 71.4327 27.1432C71.4327 27.1011 71.8817 26.8534 72.4309 26.5932C74.7397 25.4982 77.2287 25.2685 79.3048 25.9581C79.5871 26.052 80.2289 26.3284 80.7309 26.5728C81.5711 26.9814 81.793 27.1344 82.6136 27.8713C83.0264 28.2419 83.7386 29.0772 83.9571 29.4474C84.0609 29.623 84.186 29.7664 84.2352 29.7664C84.2844 29.7664 84.3249 29.8227 84.3249 29.8915C84.3249 29.9603 84.4275 30.1605 84.5526 30.336C84.8436 30.7447 85.3949 32.4347 85.5821 33.4926C85.6784 34.0359 85.7047 34.8198 85.6601 35.831C85.5512 38.3037 84.9783 40.1092 83.7128 41.9694C83.189 42.7396 83.0848 42.8617 82.1287 43.8279C81.642 44.3195 81.2442 44.7402 81.2442 44.7632C81.2442 44.7861 81.4752 45.1956 81.7579 45.673C82.0402 46.1505 82.2713 46.5912 82.2713 46.6521C82.2713 46.713 82.3225 46.7626 82.3851 46.7626C82.4481 46.7626 82.4993 46.8656 82.4993 46.9911C82.4993 47.1162 82.5377 47.2196 82.5848 47.22C82.6874 47.2209 82.9555 47.7734 82.9555 47.9831C82.9555 48.0648 83.0072 48.1315 83.0698 48.1315C83.1327 48.1315 83.184 48.2037 83.184 48.2921C83.184 48.3801 83.282 48.6494 83.4017 48.8909C83.7941 49.681 84.0968 50.4078 84.0968 50.56C84.0968 50.6422 84.1398 50.7585 84.1923 50.8177C84.279 50.9157 84.8582 52.715 85.1272 53.7212C85.5496 55.3011 85.9178 58.1224 85.9211 59.7991C85.9219 60.4533 86.0558 60.7873 86.5203 61.2998C86.6304 61.4212 86.7209 61.5838 86.7209 61.6609C86.7209 61.7381 86.7626 61.8181 86.8134 61.839C86.9156 61.8807 87.7821 63.5657 87.8888 63.9301C87.9255 64.0556 88.0685 64.4664 88.2062 64.8429C88.885 66.6964 89.0597 67.899 89.0597 70.7173C89.0597 73.4532 88.9138 74.5135 88.2662 76.4779C87.9422 77.4616 86.9798 79.5294 86.8151 79.5957C86.7634 79.6166 86.7209 79.6833 86.7209 79.7433C86.7209 80.0519 85.412 81.7211 84.2865 82.8477C82.981 84.155 82.4506 84.6228 81.9006 84.9518C81.7279 85.0548 81.5866 85.1795 81.5866 85.2287C81.5866 85.2779 81.5094 85.3184 81.4156 85.3184C81.3214 85.3184 81.2442 85.3697 81.2442 85.4322C81.2442 85.4952 81.1675 85.5465 81.0733 85.5465C80.979 85.5465 80.9019 85.5977 80.9019 85.6603C80.9019 85.7233 80.8252 85.7745 80.7309 85.7745C80.6367 85.7745 80.56 85.82 80.56 85.875C80.56 85.9305 80.4699 86.0043 80.3602 86.0393C80.0929 86.124 79.4854 86.4942 79.4379 86.6014C79.417 86.6485 79.3015 86.6869 79.1814 86.6869C79.0609 86.6869 78.9625 86.7265 78.9625 86.774C78.9625 86.8645 78.8253 86.9308 77.0231 87.7085C76.4268 87.9658 75.8364 88.2231 75.7109 88.2798C75.5854 88.3365 75.2772 88.4482 75.0262 88.5279C74.7752 88.6075 74.5212 88.7134 74.4616 88.7635C74.402 88.8135 74.2381 88.8544 74.0976 88.8544C73.9571 88.8544 73.8103 88.9056 73.7715 88.9686C73.7327 89.0312 73.553 89.0825 73.372 89.0825C73.1911 89.0825 73.0114 89.1337 72.9726 89.1967C72.9338 89.2593 72.7799 89.3105 72.6302 89.3105C72.481 89.3105 72.3271 89.3618 72.2883 89.4248C72.2495 89.4873 72.0698 89.5386 71.8888 89.5386C71.7079 89.5386 71.5319 89.5845 71.4973 89.6404C71.4627 89.6962 71.2671 89.7684 71.0628 89.8005C70.8581 89.833 70.4857 89.921 70.2347 89.9961C69.9836 90.0711 69.5854 90.1583 69.3494 90.19C69.1138 90.2216 68.8928 90.2934 68.8578 90.3493C68.8232 90.4055 68.686 90.4514 68.553 90.4514C68.2348 90.4514 67.536 90.6991 67.3454 90.8792C67.1098 91.1023 67.2345 91.395 67.6106 91.5005C68.2828 91.6894 70.7676 91.5802 72.0836 91.3037C75.0154 90.6887 77.8354 89.6212 80.56 88.0967C80.9678 87.8682 81.4039 87.6239 81.5294 87.553C82.0757 87.2456 82.4431 86.985 84.0388 85.7758C84.3207 85.5623 86.7138 83.1663 86.9506 82.8607C87.0457 82.7381 87.2496 82.4579 87.4039 82.2385C87.5582 82.0188 87.725 81.7878 87.7746 81.7252C88.2141 81.1698 88.8717 79.9155 89.6881 78.075C90.0242 77.3177 90.4612 75.621 90.819 73.6833C91.0963 72.1814 91.05 69.3371 90.7147 67.2952C90.648 66.8874 90.5638 66.3611 90.5275 66.1255C90.4912 65.8895 90.4157 65.6685 90.3594 65.6339C90.3036 65.5993 90.2569 65.4584 90.256 65.3208C90.2539 65.0481 90.0046 64.2666 89.8795 64.1415C89.8366 64.0986 89.8011 63.9923 89.8011 63.9055C89.8011 63.8188 89.6985 63.5357 89.573 63.2759C89.4475 63.0161 89.3449 62.7363 89.3449 62.6542C89.3449 62.5716 89.2936 62.5045 89.2307 62.5045C89.1681 62.5045 89.1168 62.429 89.1168 62.3373C89.1168 62.1425 88.6615 61.2973 88.1645 60.5688C87.8367 60.0885 87.8079 59.958 87.6687 58.2875C87.5173 56.4733 87.3968 55.5596 87.1837 54.6052C87.1174 54.307 87.0157 53.845 86.9573 53.5786C86.8993 53.3117 86.8001 52.9139 86.7371 52.6946C86.6717 52.4669 86.6087 52.2388 86.5478 52.0099C86.507 51.8531 86.4298 51.6221 86.3764 51.4966C86.3231 51.3711 86.1663 50.9349 86.0278 50.5271C85.5237 49.0401 84.7836 47.3368 84.1014 46.0942C83.8479 45.6326 83.6402 45.1814 83.6402 45.0922C83.6402 45.0029 83.807 44.7548 84.0109 44.5409C84.4804 44.048 84.5363 43.9755 84.98 43.2837C85.181 42.9701 85.3857 42.6595 85.4341 42.5936C85.5254 42.4702 85.6688 42.2267 86.047 41.5537C86.1663 41.3406 86.2643 41.0908 86.2643 40.9987C86.2643 40.9065 86.3047 40.831 86.3535 40.831C86.4027 40.831 86.514 40.5875 86.6008 40.2894C86.6879 39.9912 86.7968 39.6706 86.843 39.5763C87.0515 39.1502 87.3484 37.75 87.5106 36.4231C87.6866 34.9879 87.3397 32.3279 86.8064 31.0211C86.7426 30.8643 86.6525 30.6333 86.6058 30.5078C86.3965 29.9416 85.9507 29.083 85.5396 28.4546C85.0792 27.7507 82.9939 25.5574 82.7775 25.5499C82.7112 25.5478 82.5569 25.4557 82.4355 25.3456C82.1916 25.1246 81.0103 24.5321 80.233 24.241C78.8161 23.7102 76.7421 23.5242 75.1405 23.784ZM22.6012 24.1856C21.7243 24.3824 21.4766 24.4558 20.719 24.7426C20.2378 24.9249 19.0702 25.5337 18.9505 25.6654C18.9189 25.7 18.7137 25.8531 18.4939 26.0057C17.5236 26.6804 16.3111 27.8954 15.9783 28.5263C15.8999 28.6752 15.799 28.8224 15.7544 28.8541C15.5784 28.9771 14.7361 30.7009 14.41 31.6057C13.3888 34.4362 13.5056 38.3225 14.694 41.0591C15.0055 41.7759 15.4583 42.712 15.5221 42.7704C15.5567 42.8017 15.6489 42.9426 15.7273 43.084L16.0125 43.5973C16.0909 43.7386 16.1835 43.8796 16.2185 43.9109C16.4507 44.1198 17.125 45.1138 17.125 45.2477C17.125 45.3378 16.9265 45.7539 16.6842 46.1726C16.1847 47.0357 15.7423 47.9606 15.0651 49.5576C14.9283 49.8808 14.6039 50.8636 14.5005 51.2685C14.4526 51.4566 14.2762 52.0729 14.109 52.6374C13.6703 54.1173 13.3597 56.0137 13.2016 58.177C13.0853 59.7682 13.0257 60.1193 12.8259 60.4012C12.1166 61.4007 11.4003 62.8723 10.9691 64.2154C10.5521 65.513 10.5233 65.6189 10.2607 66.839C10.0342 67.889 10.0021 68.3676 10 70.7173C9.99753 73.5499 10.1218 74.5215 10.7443 76.5351C11.2702 78.2351 12.4848 80.8771 12.989 81.4175C13.0674 81.5013 13.1316 81.6143 13.1316 81.6681C13.1316 81.7219 13.1958 81.8336 13.2742 81.917C13.353 82 13.7162 82.4641 14.0819 82.9478C15.5972 84.9518 17.7288 86.7599 20.3574 88.2706C21.264 88.7914 21.4633 88.8919 22.6583 89.429C24.1065 90.0799 26.4091 90.8446 27.7926 91.1344C28.1688 91.2132 28.6566 91.3246 28.8764 91.3817C29.4685 91.536 32.8631 91.6365 33.3256 91.513C33.7475 91.4005 33.9231 91.0665 33.6508 90.8955C33.4961 90.7988 32.6338 90.5331 31.7856 90.3217C31.5346 90.2592 31.1714 90.1599 30.9788 90.1016C30.7861 90.0432 30.4909 89.9952 30.3229 89.9952C30.1548 89.9952 30.0172 89.9439 30.0172 89.881C30.0172 89.8184 29.8404 89.7671 29.6244 89.7671C29.4089 89.7671 29.2004 89.7154 29.1616 89.6529C29.1228 89.5903 28.9431 89.5386 28.7621 89.5386C28.5816 89.5386 28.4018 89.4873 28.3631 89.4248C28.3243 89.3618 28.1446 89.3105 27.9636 89.3105C27.7826 89.3105 27.6029 89.2593 27.5641 89.1967C27.5253 89.1337 27.3456 89.0825 27.1651 89.0825C26.9841 89.0825 26.8044 89.0312 26.7656 88.9686C26.7268 88.9056 26.573 88.8544 26.4233 88.8544C26.274 88.8544 26.126 88.8131 26.0951 88.763C26.0638 88.7126 25.7753 88.5996 25.4534 88.512C25.1319 88.4245 24.8433 88.3119 24.8121 88.2614C24.7812 88.211 24.6845 88.1701 24.5973 88.1701C24.4559 88.1701 23.7375 87.8569 22.145 87.1018C21.8627 86.9679 21.6142 86.8199 21.5934 86.7728C21.5725 86.7257 21.5046 86.6869 21.4428 86.6869C21.3811 86.6869 21.1063 86.533 20.8328 86.345C20.5593 86.1565 20.2803 86.0026 20.2132 86.0026C20.1464 86.0026 20.0914 85.9601 20.0914 85.908C20.0914 85.8559 19.95 85.7404 19.7774 85.6515C19.6048 85.5627 19.438 85.4614 19.4067 85.4268C19.3754 85.3922 19.1724 85.2404 18.9555 85.089C18.0011 84.4214 15.1852 81.5872 15.1852 81.2937C15.1852 81.2432 15.091 81.101 14.9755 80.9768C14.86 80.8529 14.6932 80.6115 14.6048 80.4397C14.5164 80.2683 14.415 80.1023 14.38 80.0711C14.2612 79.9656 13.1232 77.6805 12.9456 77.1906C12.0387 74.692 11.8406 73.5236 11.8368 70.6602C11.8343 68.5966 11.8698 68.0991 12.0912 67.0671C12.5561 64.9055 13.6332 62.1525 14.2979 61.4278C14.4096 61.3061 14.5009 61.1393 14.5009 61.0571C14.5009 60.9746 14.5464 60.9074 14.6014 60.9074C14.7957 60.9074 14.8883 60.3804 14.9709 58.7971C15.1139 56.0475 15.3174 54.9263 16.2227 51.8961C16.7505 50.1281 17.8647 47.421 18.1474 47.2192C18.1912 47.1875 18.2996 46.9953 18.3885 46.7914C18.4773 46.5875 18.5886 46.4207 18.6357 46.4207C18.6833 46.4207 18.722 46.3435 18.722 46.2493C18.722 46.1555 18.7733 46.0783 18.8363 46.0783C18.8988 46.0783 18.9514 46.0141 18.953 45.9357C18.9543 45.8573 19.0556 45.6647 19.1786 45.5079C19.5497 45.0338 19.4672 44.7561 18.745 44.0472C17.3856 42.7133 16.2635 40.6367 15.7723 38.546C15.5767 37.7124 15.4942 35.3819 15.6247 34.3766C15.9145 32.147 16.8932 30.1088 18.393 28.6085C20.7652 26.2371 23.469 25.4065 26.8227 26.0186C28.0503 26.2429 29.777 26.9668 30.3441 27.4956C30.473 27.6152 30.6335 27.7132 30.7007 27.7132C30.9617 27.7132 32.8448 29.7389 33.3047 30.5145C33.5674 30.9573 33.7822 31.3797 33.7822 31.4535C33.7822 31.6378 34.3847 31.7805 34.4418 31.6095C34.466 31.5369 34.574 31.4773 34.6816 31.4773C34.7892 31.4773 34.9264 31.4339 34.986 31.381C35.0456 31.3276 35.5306 31.1175 36.0639 30.9135C37.5792 30.3348 37.5492 30.3552 37.4141 30.0083C37.3494 29.8419 37.329 29.397 37.3678 29.0046C37.4391 28.2878 37.3211 28.008 37.058 28.2707C36.9883 28.3404 36.8382 28.3975 36.7244 28.3975C36.6105 28.3975 36.4283 28.4446 36.3191 28.5017C35.561 28.9004 34.8113 29.1897 34.6741 29.1372C34.5848 29.103 34.4147 28.9095 34.2963 28.7077C33.7717 27.815 30.8758 25.3177 30.3646 25.3177C30.2991 25.3177 30.2453 25.2664 30.2453 25.2038C30.2453 25.1409 30.1678 25.0896 30.0727 25.0896C29.9776 25.0896 29.8108 25.0441 29.702 24.9891C27.7939 24.0183 24.8371 23.6839 22.6012 24.1856ZM23.8563 33.586C22.1359 34.5008 21.565 36.2626 22.4227 38.0122C22.7301 38.6394 23.514 39.4625 23.8038 39.4625C23.878 39.4625 24.2408 39.1197 24.6102 38.7011C25.5922 37.589 26.0321 37.1508 26.4804 36.838C26.7001 36.685 26.9791 36.4686 27.1009 36.3568C27.2226 36.2455 27.3894 36.1542 27.4716 36.1542C27.5541 36.1542 27.6213 36.1154 27.6213 36.0683C27.6213 36.0207 27.7755 35.9136 27.9636 35.8302C28.1808 35.7343 28.3059 35.595 28.3059 35.4486C28.3059 35.1822 26.9132 33.759 26.6526 33.759C26.558 33.759 26.4804 33.7073 26.4804 33.6448C26.4804 33.5822 26.3807 33.5305 26.259 33.5305C26.1372 33.5305 26.0059 33.4792 25.9671 33.4167C25.9283 33.3537 25.553 33.3049 25.1331 33.3079C24.5544 33.312 24.2454 33.3792 23.8563 33.586ZM74.9695 33.41C74.8753 33.4621 74.6442 33.5743 74.4558 33.6602C73.9721 33.8804 72.8016 35.065 72.8016 35.3348C72.8016 35.4803 73.0026 35.6892 73.3683 35.9236C74.432 36.6062 75.8481 37.8625 76.4527 38.6602C76.8943 39.2427 77.0986 39.4625 77.1995 39.4625C77.5248 39.4625 78.7344 37.7512 78.7344 37.2909C78.7344 37.1749 78.7857 37.0486 78.8483 37.0098C78.9913 36.9214 78.9984 35.8773 78.8578 35.6108C78.8003 35.502 78.6748 35.231 78.5785 35.0087C78.337 34.4508 77.7187 33.8428 77.0936 33.5493C76.5511 33.2941 75.326 33.214 74.9695 33.41ZM34.6949 55.3349C33.4211 55.8511 32.6788 56.4311 32.0262 57.4215C31.3949 58.3784 31.1581 59.2195 31.1581 60.5025C31.1581 62.6412 31.7389 63.8201 33.4803 65.2136C33.5783 65.292 33.738 65.3562 33.8347 65.3562C33.9314 65.3562 34.0102 65.4075 34.0102 65.47C34.0102 65.533 34.1287 65.5843 34.2729 65.5843C34.4172 65.5843 34.5903 65.6393 34.6574 65.7065C34.7266 65.7757 35.237 65.8286 35.8358 65.8286C36.435 65.8286 36.945 65.7757 37.0142 65.7065C37.0817 65.6393 37.2097 65.5843 37.2994 65.5843C37.6592 65.5843 38.8902 64.8483 39.3726 64.3442C39.9522 63.7396 40.4968 62.7989 40.6665 62.1108C40.7991 61.5729 40.8187 59.5243 40.6961 59.0252C40.5072 58.2575 39.8772 57.1805 39.2617 56.5729C38.6854 56.0042 38.2055 55.7031 37.2852 55.3324C36.8937 55.1748 35.0861 55.1764 34.6949 55.3349ZM36.7035 57.4015C35.5731 58.0494 35.5364 59.8783 36.6418 60.4709C37.6413 61.0067 38.8551 60.4984 39.1454 59.4217C39.3155 58.7892 39.185 58.2425 38.7505 57.7684C38.155 57.1183 37.4257 56.9878 36.7035 57.4015ZM66.5836 58.8817C66.1199 58.996 65.7167 59.1415 65.3585 59.3237C65.2497 59.3792 65.0829 59.4247 64.9878 59.4247C64.8927 59.4247 64.8152 59.4697 64.8152 59.5247C64.8152 59.5798 64.6613 59.6886 64.4728 59.7666C64.2848 59.8446 64.1305 59.95 64.1305 60.0009C64.1305 60.0518 64.0408 60.1223 63.9307 60.1573C63.1497 60.4075 61.2783 62.9823 61.2783 63.8075C61.2783 64.2637 61.5919 64.6561 62.021 64.7366C62.3166 64.792 62.6081 64.7111 63.3507 64.3688C64.2902 63.9356 64.3185 63.9301 65.6708 63.936C67.2345 63.9426 67.4613 64.0156 68.9658 64.9976C69.4599 65.3204 69.9032 65.5843 69.9507 65.5843C70.1279 65.5843 70.6521 65.2607 70.8076 65.0556C71.1429 64.6131 71.019 64.1678 70.4065 63.6107C70.0933 63.3255 69.5412 62.9557 69.1801 62.7884C68.8186 62.6212 68.4341 62.4378 68.3249 62.3802C68.2161 62.3231 68.0338 62.2764 67.92 62.2764C67.8062 62.2764 67.6556 62.2188 67.5856 62.1488C67.5076 62.0708 66.9468 62.0183 66.1366 62.0129C65.4098 62.0087 64.8152 61.967 64.8152 61.9207C64.8152 61.731 65.2601 61.4157 66.0303 61.0601C66.9897 60.6164 68.1235 60.4679 68.9224 60.6814C69.7364 60.8987 70.3944 60.9445 70.572 60.7969C71.205 60.272 70.5866 58.9681 69.7051 58.9681C69.5959 58.9681 69.4745 58.9168 69.4357 58.8542C69.3465 58.7091 67.1974 58.73 66.5836 58.8817ZM46.674 65.342C45.215 65.8199 44.4877 66.804 44.4135 68.3993C44.3643 69.4585 44.5636 70.1711 45.2133 71.2598C45.6236 71.9466 46.9479 73.3639 47.5872 73.7992C47.8069 73.9489 48.0125 74.0995 48.0438 74.1341C48.1213 74.2192 48.7042 74.5644 49.1563 74.7925C49.4907 74.9618 49.527 75.0298 49.527 75.4876C49.527 76.608 49.2151 77.3106 48.3269 78.1888C47.4942 79.0128 46.5781 79.3868 45.393 79.3868C44.4314 79.3868 43.1355 78.9427 42.4808 78.389C41.9325 77.9249 41.8132 77.8119 41.5689 77.5221C41.4279 77.3544 41.3124 77.1668 41.3124 77.1042C41.312 77.0892 41.3091 77.0746 41.3032 77.0609C41.2974 77.0471 41.2891 77.035 41.2786 77.0242C41.2678 77.0138 41.2557 77.0054 41.2415 76.9996C41.2278 76.9942 41.2132 76.9912 41.1982 76.9912C41.1356 76.9912 41.0839 76.8916 41.0839 76.7698C41.0839 76.6481 41.0326 76.5167 40.9701 76.4779C40.9071 76.4392 40.8558 76.2398 40.8558 76.0347C40.8558 75.2433 39.9097 74.8792 39.3639 75.4609C38.9577 75.8937 39.0111 76.7423 39.5069 77.7381C39.8843 78.497 41.2528 79.9631 41.7265 80.1157C41.9537 80.1891 42.2252 80.6703 42.2252 80.9997C42.2252 81.1089 42.2765 81.2299 42.339 81.2686C42.402 81.3074 42.4533 81.4388 42.4533 81.5605C42.4533 81.6823 42.5046 81.7819 42.5671 81.7819C42.6301 81.7819 42.6826 81.872 42.6839 81.9817C42.6851 82.0913 42.7869 82.3098 42.9095 82.4666C43.0325 82.6234 43.1338 82.7894 43.135 82.8352C43.1409 83.02 44.0111 84.2672 44.4994 84.79C45.6503 86.0218 47.0497 86.872 48.565 87.2594C49.6404 87.5342 51.6702 87.5655 52.5901 87.3203C53.2998 87.1314 55.2313 86.2374 55.2313 86.0977C55.2313 86.0456 55.2959 86.0026 55.3743 86.0026C55.6316 86.0026 56.7766 84.8226 57.3662 83.9494C58.0501 82.937 58.6714 81.7136 58.8936 80.9421C59.0154 80.5197 59.1571 80.3154 59.4874 80.0865C60.3501 79.4885 61.3267 78.4486 61.7162 77.7135C61.7879 77.5775 61.9213 77.181 62.0118 76.8324C62.2778 75.8116 61.9734 75.1732 61.2212 75.1736C60.7383 75.1736 60.436 75.4747 60.2542 76.1356C60.0224 76.9783 59.1363 78.2459 58.7798 78.2459C58.7106 78.2459 58.6543 78.2914 58.6543 78.3468C58.6543 78.4903 57.4884 79.0411 56.7916 79.2267C55.2992 79.6241 53.8206 79.2267 52.7177 78.1317C51.968 77.3874 51.6944 76.7315 51.6944 75.6769C51.6944 74.9614 51.7282 74.8046 51.8942 74.7441C52.0042 74.7041 52.3086 74.526 52.5709 74.3484C52.8332 74.1708 53.0913 74.0253 53.1447 74.0253C53.1981 74.0253 53.3156 73.9227 53.4061 73.7972C53.4966 73.6717 53.6234 73.5687 53.688 73.5678C53.8039 73.567 55.5853 71.7861 55.9159 71.3407C56.2124 70.9417 56.6006 70.1803 56.6006 69.9985C56.6006 69.9021 56.6578 69.8046 56.7278 69.7812C56.8075 69.7549 56.8592 69.3571 56.8662 68.7129C56.8754 67.8714 56.8312 67.5891 56.6202 67.1409C56.3154 66.4921 55.8155 65.975 55.1149 65.5843C54.675 65.3387 54.4611 65.2991 53.5771 65.2999C52.7169 65.3003 52.4671 65.3445 52.0368 65.5718C51.7545 65.7211 51.4968 65.8745 51.4643 65.9133C51.4313 65.9517 51.2145 66.1593 50.9814 66.3741L50.5586 66.7652L50.0811 66.2923C49.4098 65.6281 48.7234 65.3304 47.7585 65.2853C47.319 65.2649 46.8312 65.2907 46.674 65.342ZM49.1275 80.6023C49.002 80.6294 48.4887 80.7478 47.9866 80.8662C47.4846 80.9847 46.8328 81.136 46.5384 81.2036C46.2441 81.2707 45.692 81.3258 45.3121 81.3258C44.8209 81.3258 44.6208 81.3687 44.6208 81.4742C44.6208 81.6839 44.8893 82.2364 44.9919 82.2373C45.039 82.2377 45.0782 82.3027 45.0794 82.3811C45.0819 82.555 45.5477 83.1467 46.1611 83.7547C46.7586 84.3472 47.7569 85.0177 48.329 85.2112C48.58 85.2963 48.8552 85.4172 48.9403 85.4802C49.1675 85.6482 52.2965 85.6228 52.3537 85.4522C52.3783 85.3784 52.4934 85.3184 52.6097 85.3184C53.3582 85.3184 55.697 83.3306 56.2012 82.2661C56.3267 82.0013 56.468 81.784 56.5151 81.7832C56.5623 81.7824 56.6006 81.6794 56.6006 81.5539C56.6006 81.3483 56.5243 81.3258 55.8305 81.3249C55.3684 81.3241 54.6271 81.2073 53.9766 81.033C53.3803 80.8733 52.6873 80.6965 52.4362 80.6398C51.9809 80.5377 49.5607 80.5101 49.1275 80.6023Z" fill="#3B5BFF"/>
</svg>
